<?xml version="1.0"?>
<svg xmlns:rdf="http://www.w3.org/1999/02/22-rdf-syntax-ns#" xmlns="http://www.w3.org/2000/svg" xmlns:cc="http://web.resource.org/cc/" xmlns:xlink="http://www.w3.org/1999/xlink" xmlns:dc="http://purl.org/dc/elements/1.1/" style="shape-rendering:geometricPrecision;text-rendering:geometricPrecision;image-rendering:optimizeQuality" fill-rule="evenodd" xml:space="preserve" height="297mm" width="210mm" clip-rule="evenodd" viewBox="0 0 210 297">
 <defs>
  <style type="text/css">
    .fil0 {fill:black}
  </style>
 </defs>
 <g id="Layer_x0020_1">
  <g id="_344652808">
   <path id="_344294472" d="m21.874 91.22l0.0003-0.01 0.0017-0.0262 0.0004-0.0063 0.0018-0.0209 0.0019-0.0168 0.0024-0.0203c0.0046-0.0344 0.0109-0.0686 0.0188-0.1028l0.0013-0.0055 0.0075-0.03 0.0013-0.0051c0.1527-0.5681 0.7519-1.1122 1.6405-1.6403 21.408-12.576 47.775-19.129 75.936-23.504 6.0399-3.1227 6.1813-15.139 14.826-18.08 4.2911 3.821 3.4393 11.82 3.616 18.984 1.1679 1.088 2.087 2.4667 2.8928 3.9776 20.559 6.6296 30.79 14.042 35.437 21.877 2.7098-2.6833 6.3338-7.1219 7.2321-6.328 1.0053 0.9301 1.1106 2.8518 1.4464 4.52 0.1901 2.5605-3.3271 10.167-3.7969 15.73-0.508 6.0161 1.3108 12.279 1.0848 18.08-1.09 0.7997-2.384-2.6944-3.616-4.8816-1.4233-5.7021-3.0329-11.41-3.7968-17.357-2.2033-0.034-1.3011 2.2536-0.8134 4.5206-0.0927 1.5229-0.829 0.5334-1.7866-1.105l-0.0119-0.0204-0.0443-0.076-0.0084-0.0146-0.0481-0.0831-0.0052-0.0088-0.0519-0.0902-0.0016-0.0028c-0.0537-0.0936-0.1082-0.1888-0.1631-0.2854l-0.0091-0.0158-0.0459-0.081-0.0128-0.0225-0.0426-0.0752-0.0164-0.0289c-1.1063-1.9547-2.3972-4.3353-3.3286-4.7388-0.0003 0.0007-0.1064-0.0432-0.1189-0.0417-0.7481 0.0914-1.5317 0.2174-2.2707 0.365-4.5532 0.9275-8.7344 2.8515-12.586 5.4206-0.2958 0.1878-0.9711 0.665-1.0535 0.7232-1.3123 0.397-0.7685-2.9221-0.7232-5.2432-11.557 1.0666-23.011 2.4418-35.075 1.9888-3.3274 1.5438-6.7308 3.0401-11.029 3.9776-2.2944 9.8716-7.404 11.024-10.667 10.938-3.8625-0.1013-3.5677-9.1064-3.2544-14.735-15.008-0.2408-27.001-1.687-32.363-5.7856-7.6633-1.1133-11.938-2.8617-15.73-4.7008-1.2042-0.6725-1.7017-1.3065-1.6779-1.9126zm23.37-6.3399c0.6548 0 1.186 0.5312 1.186 1.186 0 0.6547-0.5312 1.1859-1.186 1.1859-0.6547 0-1.1859-0.5312-1.1859-1.1859 0-0.4165 0.2153-0.7831 0.5403-0.9948-0.0435 0.2309 0.0114 0.5843 0.1647 0.9479 0.2368 0.564 0.6189 0.9408 0.8536 0.8431 0.2345-0.0992 0.2326-0.636-0.0042-1.1995-0.149-0.3542-0.3551-0.6344-0.5461-0.7695 0.058-0.0087 0.1171-0.0132 0.1776-0.0132zm-0.7085-0.8261c1.1664-0.3937 2.3771 0.0705 2.7032 1.0365 0.301 0.8915-0.2562 1.8994-1.2607 2.3593 0.4951-0.2632 0.8325-0.784 0.8325-1.3838 0-0.8649-0.7015-1.5664-1.5664-1.5664-0.865 0-1.5665 0.7015-1.5665 1.5664 0 0.865 0.7015 1.5665 1.5665 1.5665 0.1116 0 0.2204-0.0118 0.3254-0.0341-1.1193 0.3086-2.2432-0.1559-2.5557-1.0814-0.3261-0.966 0.3553-2.0689 1.5217-2.463zm1.681-1.0518c0.8275 0.4469 1.3901 1.3219 1.3901 2.3282 0 1.46-1.1841 2.6442-2.6442 2.6442-1.376 0-2.5067-1.0515-2.6325-2.3946-4.6683 2.9816-12.26 2.1283-16.631 3.5514-1.5355 0.4998-2.7182 0.9517-3.5041 1.7401 1.2597 2.0082 5.2745 3.8243 16.906 5.1087 6.4223-3.6218 12.999-4.0775 19.662-2.7572-6.934-0.3251-13.563-0.0043-18.442 4.0228 6.312 5.0796 19.374 5.3191 32.183 5.7404 6.9178 0.3526 13.889 0.4923 20.928 0.3616-6.7456 0.7162-13.775 0.9581-21.063 0.7684-0.5357 4.0733-0.5649 8.086 0.4068 11.978 3.1958-3.1407 6.9583-4.6234 10.938-5.4692 0.5519-1.0718 1-2.1824 1.3108-3.3449 3.698-0.9588 7.3623-2.0187 10.758-3.8872 12.206-0.3376 24.255-1.2123 36.16-2.5764-0.0452 1.4766-0.2111 2.9533 0.226 4.4296 0.0753 0.2112 0.2561 0.2565 0.5424 0.1356 4.7844-2.8723 9.797-5.3293 15.91-5.7856 1.0109 0.4684 1.8272 2.1055 2.6796 3.527-0.101-0.5785-0.1364-1.0796-0.0486-1.4146 0.124-0.4733 0.7151-0.6694 1.3912-0.8443-2.8958-1.9562-5.6873-3.9697-5.9658-7.3701-4.3806-1.9855-8.878-3.6203-13.741-4.1584-5.9051 1.4335-14.426 2.3974-20.815 2.9836-0.9643 1.0848-1.3182 2.3733-2.6893 2.7564 1.055-1.4992 1.3867-2.5458 1.0854-3.932 6.1997-1.7483 12.431-3.4115 18.261-6.1472-14.228 2.9869-32.895 3.8739-41.126 7.2586-1.019-0.1667-0.8327-0.8758 0.5589-2.1275 4.855-2.1458 18.149-2.9308 28.273-4.2271-7.8225 0.6476-16.7 0.4177-25.494-0.1458 0.1578-1.2159 0.0953-2.5195-0.4916-4.1055 0.2217 1.4814 0.0859 2.7866-0.179 4.0614-0.5649-0.0373-1.1292-0.0757-1.6929-0.1155 0.184-1.4124 0.1346-2.9271-0.5019-4.6476 0.2388 1.5961 0.0937 3.1197-0.1862 4.5985-0.4888-0.0353-0.9767-0.0717-1.4641-0.1086 0.0256-1.5864-0.2027-3.2481-1.2073-5.0541 0.5252 1.687 0.5823 3.3585 0.5001 5.0002-0.7039-0.0545-1.4054-0.1106-2.1046-0.1677 0.0615-1.6834-0.1262-3.4474-1.1989-5.3758 0.559 1.7958 0.5879 3.5737 0.4826 5.3171-0.8752-0.0727-1.7458-0.1471-2.611-0.2226-0.0631-1.6832-0.3808-3.4281-1.593-5.2717 0.6825 1.7301 0.8468 3.481 0.8735 5.2084-15.057-1.3294-28.296-2.9592-33.399-1.8691z" class="fil0"/>
   <ellipse id="_344552568" rx="54.245" ry="4.3785" class="fil0" cy="158.03" cx="99.011"/>
   <path id="_344552592" d="m22.406 157.78c2.2699-3.9723 7.4566-7.3879 6.8096-11.917-0.5504-3.8529-8.8529-2.9693-9.4848-6.8096-0.7534-4.5791 6.1703-7.7651 6.3232-12.403 0.1232-3.7383-5.5217-5.9882-5.5936-9.728-0.105-5.4593 3.4048-10.376 5.1072-15.565-1.1349 5.2694-4.0977 10.463-3.4048 15.808 0.5347 4.1252 6.8096 6.298 6.8096 10.458 0 4.3654-7.5552 6.8858-6.8096 11.187 0.6953 4.0113 8.9954 3.1004 9.9712 7.0528 1.0897 4.4136-3.4048 8.4309-5.1072 12.646-0.8917 0.4053-1.7076 1.3687-2.6752 1.216-0.9059-0.143-1.297-1.2971-1.9456-1.9456z" class="fil0"/>
   <path id="_344008720" d="m65.476 150.77c-0.9902-1.7328-3.2527-3.2227-2.9705-5.1984 0.2401-1.6807 3.8618-1.2952 4.1375-2.9704 0.3286-1.9975-2.6916-3.3873-2.7583-5.4106-0.0538-1.6307 2.4087-2.6122 2.44-4.2435 0.0458-2.3815-1.4852-4.5265-2.2278-6.7897 0.495 2.2986 1.7875 4.564 1.4852 6.8957-0.2332 1.7995-2.9705 2.7474-2.9705 4.5619 0 1.9043 3.2958 3.0037 2.9705 4.8801-0.3033 1.7498-3.924 1.3524-4.3496 3.0765-0.4754 1.9254 1.4852 3.6778 2.2278 5.5167 0.389 0.1768 0.7449 0.597 1.167 0.5304 0.3952-0.0624 0.5658-0.5658 0.8487-0.8487z" class="fil0"/>
   <path id="_344008816" d="m172.35 166.45c-2.2699-3.8847-7.4566-5.4571-6.8096-11.654 0.5504-5.272 8.8529-8.6694 9.4848-13.97 0.7534-6.3199-6.1703-6.6468-6.3232-12.548-0.1232-4.756 5.5217-10.744 5.5936-15.608 0.105-7.1013-3.4048-11.528-5.1072-17.291 1.1349 6.1786 4.0977 11.26 3.4048 18.535-0.5347 5.6148-6.8096 11.848-6.8096 17.214 0 5.6324 7.5552 4.7554 6.8096 10.713-0.6953 5.5555-8.9954 8.9164-9.9712 14.549-1.0897 6.2902 3.4048 9.0172 5.1072 13.526 0.8917 0.0356 1.7076 0.8327 2.6752 0.1069 0.9059-0.6796 1.297-2.3824 1.9456-3.5736z" class="fil0"/>
   <path id="_559036384" d="m126.15 148.88c1.2227-2.0925 4.0165-2.9395 3.668-6.2776-0.2965-2.8398-4.7687-4.6698-5.1091-7.5248-0.4058-3.4043 3.3237-3.5803 3.4061-6.7588 0.0663-2.5619-2.9743-5.7873-3.0131-8.4077-0.0565-3.8251 1.8341-6.2093 2.7511-9.314-0.6113 3.3281-2.2073 6.0652-1.8341 9.9842 0.2881 3.0245 3.6681 6.3818 3.6681 9.2727 0 3.034-4.0697 2.5615-3.6681 5.7705 0.3746 2.9925 4.8455 4.8029 5.3711 7.8371 0.587 3.3882-1.834 4.8571-2.751 7.2858-0.4803 0.0191-0.9198 0.4485-1.441 0.0576-0.488-0.3661-0.6987-1.2834-1.048-1.925z" class="fil0"/>
   <path id="_559036288" d="m126.1 178.99c0.2946-0.5043 0.9679-0.7084 0.8839-1.5128-0.0714-0.6844-1.1492-1.1254-1.2312-1.8134-0.0978-0.8204 0.801-0.8628 0.8208-1.6288 0.016-0.6173-0.7167-1.3946-0.7261-2.0261-0.0136-0.9217 0.442-1.4963 0.663-2.2445-0.1473 0.802-0.5319 1.4616-0.442 2.406 0.0694 0.7289 0.8839 1.5379 0.8839 2.2346 0 0.7311-0.9807 0.6173-0.8839 1.3906 0.0903 0.7212 1.1677 1.1574 1.2944 1.8886 0.1414 0.8165-0.442 1.1705-0.663 1.7558-0.1158 0.0046-0.2217 0.1081-0.3473 0.0138-0.1176-0.0882-0.1683-0.3092-0.2525-0.4638z" class="fil0"/>
   <path id="_325950072" d="m70.849 175.34c-0.2946-0.5043-0.9679-0.7084-0.8839-1.5128 0.0714-0.6844 1.1492-1.1254 1.2312-1.8134 0.0978-0.8204-0.801-0.8628-0.8208-1.6288-0.016-0.6173 0.7167-1.3946 0.7261-2.0261 0.0136-0.9217-0.442-1.4963-0.663-2.2445 0.1473 0.802 0.5319 1.4616 0.442 2.406-0.0694 0.7289-0.8839 1.5379-0.8839 2.2346 0 0.7311 0.9807 0.6173 0.8839 1.3906-0.0903 0.7212-1.1677 1.1574-1.2944 1.8886-0.1414 0.8165 0.442 1.1705 0.663 1.7558 0.1158 0.0046 0.2217 0.1081 0.3473 0.0138 0.1176-0.0882 0.1683-0.3092 0.2525-0.4638z" class="fil0"/>
   <path id="_325950024" d="m94.924 129.73c1.6672 0 3.0196 1.3524 3.0196 3.0196 0 1.6673-1.3524 3.0195-3.0196 3.0195-1.6673 0-3.0195-1.3522-3.0195-3.0195 0-0.2501 0.031-0.4931 0.0881-0.7256 0.2301 0.6952 0.8853 1.1974 1.6577 1.1974 0.9638 0 1.7456-0.7815 1.7456-1.7457 0-0.7722-0.5021-1.4278-1.1972-1.6577 0.2324-0.0571 0.4753-0.088 0.7253-0.088zm0-0.8489c2.1361 0 3.8685 1.7324 3.8685 3.8685 0 2.1359-1.7324 3.8683-3.8685 3.8683-2.1359 0-3.8683-1.7324-3.8683-3.8683 0-2.1361 1.7324-3.8685 3.8683-3.8685zm-1.3123 1.3946c0.6465 0 1.1708 0.5243 1.1708 1.1708s-0.5243 1.1708-1.1708 1.1708-1.1708-0.5243-1.1708-1.1708 0.5243-1.1708 1.1708-1.1708z" class="fil0"/>
   <path id="_325950264" d="m90.671 136.54c0.6781 0 1.2282 0.5501 1.2282 1.2282 0 0.6782-0.5501 1.2282-1.2282 1.2282-0.6782 0-1.2282-0.55-1.2282-1.2282 0-0.1017 0.0126-0.2005 0.0358-0.2951 0.0936 0.2828 0.3601 0.487 0.6743 0.487 0.392 0 0.71-0.3178 0.71-0.71 0-0.3141-0.2042-0.5808-0.487-0.6743 0.0946-0.0232 0.1934-0.0358 0.2951-0.0358zm0-0.3453c0.8688 0 1.5735 0.7047 1.5735 1.5735s-0.7047 1.5735-1.5735 1.5735-1.5735-0.7047-1.5735-1.5735 0.7047-1.5735 1.5735-1.5735zm-0.5338 0.5673c0.2629 0 0.4762 0.2132 0.4762 0.4762s-0.2133 0.4762-0.4762 0.4762c-0.263 0-0.4763-0.2132-0.4763-0.4762s0.2133-0.4762 0.4763-0.4762z" class="fil0"/>
   <path id="_550863720" d="m91.822 141.25c0.5056 0 0.9158 0.4102 0.9158 0.9158 0 0.5057-0.4102 0.9159-0.9158 0.9159-0.5057 0-0.9159-0.4102-0.9159-0.9159 0-0.0758 0.0094-0.1495 0.0268-0.22 0.0698 0.2108 0.2685 0.3631 0.5028 0.3631 0.2923 0 0.5294-0.237 0.5294-0.5294 0-0.2343-0.1523-0.4331-0.3631-0.5028 0.0705-0.0174 0.1441-0.0267 0.22-0.0267zm0-0.2575c0.6479 0 1.1733 0.5254 1.1733 1.1733s-0.5254 1.1733-1.1733 1.1733-1.1733-0.5254-1.1733-1.1733 0.5254-1.1733 1.1733-1.1733zm-0.3981 0.423c0.1961 0 0.3552 0.159 0.3552 0.3551s-0.1591 0.3551-0.3552 0.3551c-0.196 0-0.3551-0.159-0.3551-0.3551s0.1591-0.3551 0.3551-0.3551z" class="fil0"/>
   <path id="_550863912" d="m44.986 113.74c1.8774 0 3.4002 1.5228 3.4002 3.4002s-1.5228 3.4-3.4002 3.4-3.4-1.5226-3.4-3.4c0-0.2817 0.0349-0.5553 0.0992-0.8171 0.2591 0.7828 0.9969 1.3483 1.8666 1.3483 1.0853 0 1.9656-0.88 1.9656-1.9657 0-0.8695-0.5654-1.6077-1.3481-1.8666 0.2617-0.0643 0.5352-0.0991 0.8167-0.0991zm0-0.9559c2.4054 0 4.3561 1.9507 4.3561 4.3561 0 2.4051-1.9507 4.3558-4.3561 4.3558-2.4051 0-4.3558-1.9507-4.3558-4.3558 0-2.4054 1.9507-4.3561 4.3558-4.3561zm-1.4777 1.5704c0.728 0 1.3184 0.5903 1.3184 1.3183s-0.5904 1.3184-1.3184 1.3184c-0.7279 0-1.3183-0.5904-1.3183-1.3184s0.5904-1.3183 1.3183-1.3183z" class="fil0"/>
   <path id="_550863984" d="m47.147 124.44c1.1813 0 2.1395 0.9582 2.1395 2.1395 0 1.1814-0.9582 2.1395-2.1395 2.1395-1.1814 0-2.1395-0.9581-2.1395-2.1395 0-0.1772 0.022-0.3494 0.0624-0.5141 0.1631 0.4926 0.6273 0.8484 1.1746 0.8484 0.6829 0 1.2368-0.5537 1.2368-1.2369 0-0.5471-0.3557-1.0117-0.8482-1.1746 0.1646-0.0404 0.3367-0.0623 0.5139-0.0623zm0-0.6015c1.5135 0 2.741 1.2275 2.741 2.741 0 1.5134-1.2275 2.7409-2.741 2.7409-1.5134 0-2.7409-1.2275-2.7409-2.7409 0-1.5135 1.2275-2.741 2.7409-2.741zm-0.9298 0.9881c0.458 0 0.8295 0.3715 0.8295 0.8296s-0.3715 0.8296-0.8295 0.8296c-0.4581 0-0.8296-0.3715-0.8296-0.8296s0.3715-0.8296 0.8296-0.8296z" class="fil0"/>
   <path id="_550863888" d="m44.296 132.23c0.6806 0 1.2327 0.5521 1.2327 1.2327 0 0.6807-0.5521 1.2327-1.2327 1.2327-0.6807 0-1.2327-0.552-1.2327-1.2327 0-0.1021 0.0127-0.2013 0.036-0.2962 0.0939 0.2838 0.3614 0.4888 0.6767 0.4888 0.3935 0 0.7127-0.319 0.7127-0.7127 0-0.3152-0.205-0.5829-0.4888-0.6767 0.0949-0.0233 0.194-0.0359 0.2961-0.0359zm0-0.3466c0.8721 0 1.5793 0.7072 1.5793 1.5793 0 0.872-0.7072 1.5792-1.5793 1.5792-0.872 0-1.5792-0.7072-1.5792-1.5792 0-0.8721 0.7072-1.5793 1.5792-1.5793zm-0.5357 0.5693c0.2639 0 0.4779 0.2141 0.4779 0.478s-0.214 0.478-0.4779 0.478c-0.264 0-0.478-0.2141-0.478-0.478s0.214-0.478 0.478-0.478z" class="fil0"/>
   <path id="_556140216" d="m149.23 125.92c1.4212 0 2.574 1.1528 2.574 2.574s-1.1528 2.5739-2.574 2.5739-2.5739-1.1527-2.5739-2.5739c0-0.2132 0.0265-0.4203 0.0751-0.6185 0.1962 0.5926 0.7547 1.0207 1.4131 1.0207 0.8215 0 1.488-0.6662 1.488-1.4881 0-0.6583-0.428-1.2171-1.0205-1.4131 0.1981-0.0486 0.4051-0.075 0.6182-0.075zm0-0.7236c1.8209 0 3.2976 1.4767 3.2976 3.2976 0 1.8207-1.4767 3.2974-3.2976 3.2974-1.8207 0-3.2974-1.4767-3.2974-3.2974 0-1.8209 1.4767-3.2976 3.2974-3.2976zm-1.1186 1.1888c0.5511 0 0.998 0.4469 0.998 0.998s-0.4469 0.998-0.998 0.998-0.998-0.4469-0.998-0.998 0.4469-0.998 0.998-0.998z" class="fil0"/>
   <path id="_556139736" d="m150.87 134.02c0.8943 0 1.6197 0.7254 1.6197 1.6196 0 0.8943-0.7254 1.6196-1.6197 1.6196s-1.6196-0.7253-1.6196-1.6196c0-0.1341 0.0167-0.2645 0.0473-0.3892 0.1234 0.3729 0.4748 0.6423 0.8891 0.6423 0.517 0 0.9363-0.4192 0.9363-0.9364 0-0.4142-0.2693-0.7658-0.6421-0.8891 0.1246-0.0307 0.2549-0.0472 0.389-0.0472zm0-0.4554c1.1458 0 2.075 0.9292 2.075 2.075 0 1.1457-0.9292 2.0749-2.075 2.0749-1.1456 0-2.0749-0.9292-2.0749-2.0749 0-1.1458 0.9293-2.075 2.0749-2.075zm-0.7039 0.7481c0.3468 0 0.628 0.2812 0.628 0.628 0 0.3467-0.2812 0.6279-0.628 0.6279-0.3467 0-0.628-0.2812-0.628-0.6279 0-0.3468 0.2813-0.628 0.628-0.628z" class="fil0"/>
   <path id="_556139592" d="m148.71 139.91c0.5153 0 0.9332 0.418 0.9332 0.9332 0 0.5153-0.4179 0.9332-0.9332 0.9332-0.5152 0-0.9331-0.4179-0.9331-0.9332 0-0.0773 0.0096-0.1524 0.0272-0.2242 0.0711 0.2148 0.2736 0.37 0.5123 0.37 0.2979 0 0.5395-0.2415 0.5395-0.5395 0-0.2386-0.1552-0.4412-0.37-0.5123 0.0718-0.0176 0.1469-0.0272 0.2241-0.0272zm0-0.2623c0.6602 0 1.1956 0.5354 1.1956 1.1955s-0.5354 1.1955-1.1956 1.1955c-0.6601 0-1.1954-0.5354-1.1954-1.1955s0.5353-1.1955 1.1954-1.1955zm-0.4055 0.431c0.1998 0 0.3618 0.162 0.3618 0.3618s-0.162 0.3618-0.3618 0.3618-0.3619-0.162-0.3619-0.3618 0.1621-0.3618 0.3619-0.3618z" class="fil0"/>
   <path id="_556139448" d="m114.15 114.56c0.8943 0 1.6197 0.7254 1.6197 1.6196 0 0.8943-0.7254 1.6196-1.6197 1.6196s-1.6196-0.7253-1.6196-1.6196c0-0.1341 0.0167-0.2645 0.0473-0.3892 0.1234 0.3729 0.4748 0.6423 0.8891 0.6423 0.517 0 0.9363-0.4192 0.9363-0.9364 0-0.4142-0.2693-0.7658-0.6421-0.8891 0.1246-0.0307 0.2549-0.0472 0.389-0.0472zm0-0.4554c1.1458 0 2.075 0.9292 2.075 2.075 0 1.1457-0.9292 2.0749-2.075 2.0749-1.1456 0-2.0749-0.9292-2.0749-2.0749 0-1.1458 0.9293-2.075 2.0749-2.075zm-0.7039 0.7481c0.3468 0 0.628 0.2812 0.628 0.628 0 0.3467-0.2812 0.6279-0.628 0.6279-0.3467 0-0.628-0.2812-0.628-0.6279 0-0.3468 0.2813-0.628 0.628-0.628z" class="fil0"/>
   <path id="_556139328" d="m106.38 165.96c0.8943 0 1.6197 0.7254 1.6197 1.6196 0 0.8943-0.7254 1.6196-1.6197 1.6196s-1.6196-0.7253-1.6196-1.6196c0-0.1341 0.0167-0.2645 0.0473-0.3892 0.1234 0.3729 0.4748 0.6423 0.8891 0.6423 0.517 0 0.9363-0.4192 0.9363-0.9364 0-0.4142-0.2693-0.7658-0.6421-0.8891 0.1246-0.0307 0.2549-0.0472 0.389-0.0472zm0-0.4554c1.1458 0 2.075 0.9292 2.075 2.075 0 1.1457-0.9292 2.0749-2.075 2.0749-1.1456 0-2.0749-0.9292-2.0749-2.0749 0-1.1458 0.9293-2.075 2.0749-2.075zm-0.7039 0.7481c0.3468 0 0.628 0.2812 0.628 0.628 0 0.3467-0.2812 0.6279-0.628 0.6279-0.3467 0-0.628-0.2812-0.628-0.6279 0-0.3468 0.2813-0.628 0.628-0.628z" class="fil0"/>
   <path id="_556139832" d="m150.44 166.49c0.8943 0 1.6197 0.7254 1.6197 1.6196 0 0.8943-0.7254 1.6196-1.6197 1.6196s-1.6196-0.7253-1.6196-1.6196c0-0.1341 0.0167-0.2645 0.0473-0.3892 0.1234 0.3729 0.4748 0.6423 0.8891 0.6423 0.517 0 0.9363-0.4192 0.9363-0.9364 0-0.4142-0.2693-0.7658-0.6421-0.8891 0.1246-0.0307 0.2549-0.0472 0.389-0.0472zm0-0.4554c1.1458 0 2.075 0.9292 2.075 2.075 0 1.1457-0.9292 2.0749-2.075 2.0749-1.1456 0-2.0749-0.9292-2.0749-2.0749 0-1.1458 0.9293-2.075 2.0749-2.075zm-0.7039 0.7481c0.3468 0 0.628 0.2812 0.628 0.628 0 0.3467-0.2812 0.6279-0.628 0.6279-0.3467 0-0.628-0.2812-0.628-0.6279 0-0.3468 0.2813-0.628 0.628-0.628z" class="fil0"/>
   <path id="_556139928" d="m60.459 116.39c0.8943 0 1.6197 0.7254 1.6197 1.6196 0 0.8943-0.7254 1.6196-1.6197 1.6196s-1.6196-0.7253-1.6196-1.6196c0-0.1341 0.0167-0.2645 0.0473-0.3892 0.1234 0.3729 0.4748 0.6423 0.8891 0.6423 0.517 0 0.9363-0.4192 0.9363-0.9364 0-0.4142-0.2693-0.7658-0.6421-0.8891 0.1246-0.0307 0.2549-0.0472 0.389-0.0472zm0-0.4554c1.1458 0 2.075 0.9292 2.075 2.075 0 1.1457-0.9292 2.0749-2.075 2.0749-1.1456 0-2.0749-0.9292-2.0749-2.0749 0-1.1458 0.9293-2.075 2.0749-2.075zm-0.7039 0.7481c0.3468 0 0.628 0.2812 0.628 0.628 0 0.3467-0.2812 0.6279-0.628 0.6279-0.3467 0-0.628-0.2812-0.628-0.6279 0-0.3468 0.2813-0.628 0.628-0.628z" class="fil0"/>
   <path id="_556140024" d="m37.112 150.19c0.8943 0 1.6197 0.7254 1.6197 1.6196 0 0.8943-0.7254 1.6196-1.6197 1.6196s-1.6196-0.7253-1.6196-1.6196c0-0.1341 0.0167-0.2645 0.0473-0.3892 0.1234 0.3729 0.4748 0.6423 0.8891 0.6423 0.517 0 0.9363-0.4192 0.9363-0.9364 0-0.4142-0.2693-0.7658-0.6421-0.8891 0.1246-0.0307 0.2549-0.0472 0.389-0.0472zm0-0.4554c1.1458 0 2.075 0.9292 2.075 2.075 0 1.1457-0.9292 2.0749-2.075 2.0749-1.1456 0-2.0749-0.9292-2.0749-2.0749 0-1.1458 0.9293-2.075 2.0749-2.075zm-0.7039 0.7481c0.3468 0 0.628 0.2812 0.628 0.628 0 0.3467-0.2812 0.6279-0.628 0.6279-0.3467 0-0.628-0.2812-0.628-0.6279 0-0.3468 0.2813-0.628 0.628-0.628z" class="fil0"/>
   <path id="_556140120" d="m62.677 45.179c-1.4212 0-2.574 1.1528-2.574 2.574s1.1528 2.5739 2.574 2.5739 2.5739-1.1527 2.5739-2.5739c0-0.2132-0.0265-0.4203-0.0751-0.6185-0.1962 0.5926-0.7547 1.0207-1.4131 1.0207-0.8215 0-1.488-0.6662-1.488-1.4881 0-0.6583 0.428-1.2171 1.0205-1.4131-0.1981-0.0486-0.4051-0.075-0.6182-0.075zm0-0.7236c-1.8209 0-3.2976 1.4767-3.2976 3.2976 0 1.8207 1.4767 3.2974 3.2976 3.2974 1.8207 0 3.2974-1.4767 3.2974-3.2974 0-1.8209-1.4767-3.2976-3.2974-3.2976zm1.1186 1.1888c-0.5511 0-0.998 0.4469-0.998 0.998s0.4469 0.998 0.998 0.998 0.998-0.4469 0.998-0.998-0.4469-0.998-0.998-0.998z" class="fil0"/>
   <path id="_556139496" d="m64.652 55.746c-0.8943 0-1.6197 0.7254-1.6197 1.6196 0 0.8943 0.7254 1.6196 1.6197 1.6196s1.6196-0.7253 1.6196-1.6196c0-0.1341-0.0167-0.2645-0.0473-0.3892-0.1234 0.3729-0.4748 0.6423-0.8891 0.6423-0.517 0-0.9363-0.4192-0.9363-0.9364 0-0.4142 0.2693-0.7658 0.6421-0.8891-0.1246-0.0307-0.2549-0.0472-0.389-0.0472zm0-0.4554c-1.1458 0-2.075 0.9292-2.075 2.075 0 1.1457 0.9292 2.0749 2.075 2.0749 1.1456 0 2.0749-0.9292 2.0749-2.0749 0-1.1458-0.9293-2.075-2.0749-2.075zm0.7039 0.7481c-0.3468 0-0.628 0.2812-0.628 0.628 0 0.3467 0.2812 0.6279 0.628 0.6279 0.3467 0 0.628-0.2812 0.628-0.6279 0-0.3468-0.2813-0.628-0.628-0.628z" class="fil0"/>
   <path id="_344652880" d="m67.722 64.019c-0.5153 0-0.9332 0.418-0.9332 0.9332 0 0.5153 0.4179 0.9332 0.9332 0.9332 0.5152 0 0.9331-0.4179 0.9331-0.9332 0-0.0773-0.0096-0.1524-0.0272-0.2242-0.0711 0.2148-0.2736 0.37-0.5123 0.37-0.2979 0-0.5395-0.2415-0.5395-0.5395 0-0.2386 0.1552-0.4412 0.37-0.5123-0.0718-0.0176-0.1469-0.0272-0.2241-0.0272zm0-0.2623c-0.6602 0-1.1956 0.5354-1.1956 1.1955s0.5354 1.1955 1.1956 1.1955c0.6601 0 1.1954-0.5354 1.1954-1.1955s-0.5353-1.1955-1.1954-1.1955zm0.4055 0.431c-0.1998 0-0.3618 0.162-0.3618 0.3618s0.162 0.3618 0.3618 0.3618 0.3619-0.162 0.3619-0.3618-0.1621-0.3618-0.3619-0.3618z" class="fil0"/>
   <path id="_344652688" d="m143.69 53.448c1.4212 0 2.574 1.1528 2.574 2.574s-1.1528 2.5739-2.574 2.5739-2.5739-1.1527-2.5739-2.5739c0-0.2132 0.0265-0.4203 0.0751-0.6185 0.1962 0.5926 0.7547 1.0207 1.4131 1.0207 0.8215 0 1.488-0.6662 1.488-1.4881 0-0.6583-0.428-1.2171-1.0205-1.4131 0.1981-0.0486 0.4051-0.075 0.6182-0.075zm0-0.7236c1.8209 0 3.2976 1.4767 3.2976 3.2976 0 1.8207-1.4767 3.2974-3.2976 3.2974-1.8207 0-3.2974-1.4767-3.2974-3.2974 0-1.8209 1.4767-3.2976 3.2974-3.2976zm-1.1186 1.1888c0.5511 0 0.998 0.4469 0.998 0.998s-0.4469 0.998-0.998 0.998-0.998-0.4469-0.998-0.998 0.4469-0.998 0.998-0.998z" class="fil0"/>
   <path id="_344652784" d="m137.43 56.335c0.8943 0 1.6197 0.7254 1.6197 1.6196 0 0.8943-0.7254 1.6196-1.6197 1.6196s-1.6196-0.7253-1.6196-1.6196c0-0.1341 0.0167-0.2645 0.0473-0.3892 0.1234 0.3729 0.4748 0.6423 0.8891 0.6423 0.517 0 0.9363-0.4192 0.9363-0.9364 0-0.4142-0.2693-0.7658-0.6421-0.8891 0.1246-0.0307 0.2549-0.0472 0.389-0.0472zm0-0.4554c1.1458 0 2.075 0.9292 2.075 2.075 0 1.1457-0.9292 2.0749-2.075 2.0749-1.1456 0-2.0749-0.9292-2.0749-2.0749 0-1.1458 0.9293-2.075 2.0749-2.075zm-0.7039 0.7481c0.3468 0 0.628 0.2812 0.628 0.628 0 0.3467-0.2812 0.6279-0.628 0.6279-0.3467 0-0.628-0.2812-0.628-0.6279 0-0.3468 0.2813-0.628 0.628-0.628z" class="fil0"/>
   <path id="_344652904" d="m136.13 63.752c0.5153 0 0.9332 0.418 0.9332 0.9332 0 0.5153-0.4179 0.9332-0.9332 0.9332-0.5152 0-0.9331-0.4179-0.9331-0.9332 0-0.0773 0.0096-0.1524 0.0272-0.2242 0.0711 0.2148 0.2736 0.37 0.5123 0.37 0.2979 0 0.5395-0.2415 0.5395-0.5395 0-0.2386-0.1552-0.4412-0.37-0.5123 0.0718-0.0176 0.1469-0.0272 0.2241-0.0272zm0-0.2623c0.6602 0 1.1956 0.5354 1.1956 1.1955s-0.5354 1.1955-1.1956 1.1955c-0.6601 0-1.1954-0.5354-1.1954-1.1955s0.5353-1.1955 1.1954-1.1955zm-0.4055 0.431c0.1998 0 0.3618 0.162 0.3618 0.3618s-0.162 0.3618-0.3618 0.3618-0.3619-0.162-0.3619-0.3618 0.1621-0.3618 0.3619-0.3618z" class="fil0"/>
  </g>
 </g>
<metadata><rdf:RDF><cc:Work><dc:format>image/svg+xml</dc:format><dc:type rdf:resource="http://purl.org/dc/dcmitype/StillImage"/><cc:license rdf:resource="http://creativecommons.org/licenses/publicdomain/"/><dc:publisher><cc:Agent rdf:about="http://openclipart.org/"><dc:title>Openclipart</dc:title></cc:Agent></dc:publisher></cc:Work><cc:License rdf:about="http://creativecommons.org/licenses/publicdomain/"><cc:permits rdf:resource="http://creativecommons.org/ns#Reproduction"/><cc:permits rdf:resource="http://creativecommons.org/ns#Distribution"/><cc:permits rdf:resource="http://creativecommons.org/ns#DerivativeWorks"/></cc:License></rdf:RDF></metadata></svg>
